<mxfile host="app.diagrams.net" modified="2023-12-26T03:20:39.010Z" agent="Mozilla/5.0 (Macintosh; Intel Mac OS X 10_15_7) AppleWebKit/537.36 (KHTML, like Gecko) Chrome/120.0.0.0 Safari/537.36" version="22.1.11" etag="NG4ajbxzZjFpKAkvak8C" type="github">
  <diagram name="Page-1" id="pxmTdDuC9jH_nddaFF9A">
    <mxGraphModel>
      <root>
        <mxCell id="0" />
        <mxCell id="1" parent="0" />
      </root>
    </mxGraphModel>
  </diagram>
</mxfile>
